<?xml version="1.0"?>
<svg xmlns="http://www.w3.org/2000/svg" xmlns:xlink="http://www.w3.org/1999/xlink" xmlns:svgjs="http://svgjs.com/svgjs" version="1.1" width="512" height="512" x="0" y="0" viewBox="0 0 512 512" style="enable-background:new 0 0 512 512" xml:space="preserve" class=""><g><g xmlns="http://www.w3.org/2000/svg"><g><path d="m60 512v-62h-60v-450h390v450h-250.005z" fill="#2fceff" data-original="#ff7040" style="" class=""/></g><path d="m195 0h195v450h-195z" fill="#3cc7f2" data-original="#f24b3c" style="" class=""/><path d="m512 225c0 111.977-20.365 173.091-45 235.499-23.695-60.027-45-118.165-45-235.499l45-30z" fill="#405680" data-original="#405680" style=""/><path d="m512 225-45-30v265.499c24.635-62.408 45-123.523 45-235.499z" fill="#293e66" data-original="#293e66" style=""/><g id="Blog_2_"><g><path d="m60 240h270v30h-270z" fill="#405680" data-original="#405680" style=""/></g><g><path d="m150 300h180v30h-180z" fill="#405680" data-original="#405680" style=""/></g><g><g><path d="m60 360h270v30h-270z" fill="#405680" data-original="#405680" style=""/></g></g><g><path d="m135 204.272v-138.544l138.545 69.272z" fill="#f3f5f9" data-original="#f3f5f9" style="" class=""/></g><g><path d="m512 75v150h-90v-150c0-24.901 20.099-45 45-45s45 20.099 45 45z" fill="#59abff" data-original="#59abff" style="" class=""/></g><g><g><path d="m60 300h60v30h-60z" fill="#405680" data-original="#405680" style=""/></g></g></g><path d="m512 225v-150c0-24.901-20.099-45-45-45v195z" fill="#4d87ff" data-original="#4d87ff" style="" class=""/><g fill="#293e66"><path d="m195 360h135v30h-135z" fill="#293e66" data-original="#293e66" style=""/><path d="m195 300h135v30h-135z" fill="#293e66" data-original="#293e66" style=""/><path d="m195 240h135v30h-135z" fill="#293e66" data-original="#293e66" style=""/></g><path d="m195 174.272 78.545-39.272-78.545-39.272z" fill="#e1e6f0" data-original="#e1e6f0" style="" class=""/></g></g></svg>
