<?xml version="1.0" encoding="iso-8859-1"?>
<!-- Generator: Adobe Illustrator 19.0.0, SVG Export Plug-In . SVG Version: 6.00 Build 0)  -->
<svg version="1.1" id="Capa_1" xmlns="http://www.w3.org/2000/svg" xmlns:xlink="http://www.w3.org/1999/xlink" x="0px" y="0px"
	 viewBox="0 0 204.802 204.802" style="enable-background:new 0 0 204.802 204.802;" xml:space="preserve">
<rect x="92.16" y="139.948" style="fill:#DDDDDD;" width="20.48" height="30.72"/>
<path d="M112.64,174.082H92.16c-1.884,0-3.413-1.529-3.413-3.413v-30.72c0-1.884,1.529-3.413,3.413-3.413h20.48
	c1.884,0,3.413,1.529,3.413,3.413v30.72C116.053,172.553,114.524,174.082,112.64,174.082z M95.573,167.255h13.653v-23.893H95.573
	V167.255z"/>
<path style="fill:#2BBBE9;" d="M191.544,146.775H13.257c-5.437,0-9.844-4.407-9.844-9.844V33.739c0-5.437,4.407-9.844,9.844-9.844
	h178.285c5.437,0,9.844,4.407,9.844,9.844v103.192C201.387,142.368,196.98,146.775,191.544,146.775z"/>
<path d="M191.543,150.188H13.259C5.949,150.188,0,144.242,0,136.931V33.737c0-7.31,5.948-13.257,13.259-13.257h178.285
	c7.31,0,13.257,5.946,13.257,13.257v103.194C204.8,144.242,198.854,150.188,191.543,150.188z M13.259,27.308
	c-3.548,0-6.432,2.884-6.432,6.431v103.194c0,3.545,2.884,6.431,6.432,6.431h178.285c3.545,0,6.431-2.884,6.431-6.431V33.739
	c0-3.545-2.884-6.431-6.431-6.431L13.259,27.308L13.259,27.308z"/>
<rect x="75.093" y="170.668" style="fill:#777777;" width="54.613" height="10.24"/>
<path d="M129.707,184.322H75.093c-1.884,0-3.413-1.529-3.413-3.413v-10.24c0-1.884,1.529-3.413,3.413-3.413h54.613
	c1.884,0,3.413,1.529,3.413,3.413v10.24C133.12,182.793,131.591,184.322,129.707,184.322z M78.507,177.495h47.787v-3.413H78.507
	V177.495z"/>
<path d="M102.4,129.708c-12.553,0-22.019-20.543-22.019-47.787s9.467-47.787,22.019-47.787c12.554,0,22.021,20.543,22.021,47.787
	S114.954,129.708,102.4,129.708z M102.4,40.962c-7.171,0-15.193,17.517-15.193,40.96s8.021,40.96,15.193,40.96
	c7.173,0,15.194-17.517,15.194-40.96S109.573,40.962,102.4,40.962z"/>
<path d="M132.062,114.476c-11.752,0.002-28.327-6.729-42.25-15.749C72.385,87.441,59.996,73.571,58.25,63.394
	c-0.609-3.557,0.056-6.721,1.929-9.151c8.219-10.68,34.376-2.364,54.81,10.871c17.427,11.286,29.817,25.156,31.563,35.333
	c0.609,3.557-0.056,6.721-1.929,9.151C142.003,113.004,137.561,114.476,132.062,114.476z M72.75,56.189
	c-3.567,0-6.059,0.785-7.161,2.219c-0.698,0.906-0.896,2.161-0.609,3.833c1.142,6.649,10.561,19.11,28.544,30.758
	c22.851,14.8,42.011,17.212,45.691,12.438c0.698-0.906,0.896-2.161,0.609-3.833c-1.142-6.649-10.561-19.11-28.546-30.758l0,0
	C95.278,60.483,81.085,56.189,72.75,56.189z"/>
<path d="M72.738,114.476c-5.499,0-9.94-1.473-12.559-4.876c-1.872-2.43-2.538-5.594-1.929-9.151
	c1.746-10.177,14.135-24.047,31.561-35.333c20.439-13.239,46.595-21.547,54.811-10.871c1.872,2.43,2.538,5.594,1.929,9.151
	c-1.746,10.177-14.136,24.047-31.563,35.333C101.067,107.747,84.49,114.476,72.738,114.476z M132.05,56.189
	c-8.334,0-22.526,4.292-38.528,14.657c-17.983,11.648-27.402,24.11-28.544,30.758c-0.287,1.673-0.089,2.927,0.609,3.833
	c3.678,4.78,22.845,2.36,45.689-12.438c17.983-11.648,27.404-24.11,28.546-30.758c0.287-1.673,0.089-2.927-0.609-3.833
	C138.11,56.975,135.617,56.189,132.05,56.189z"/>
<g>
</g>
<g>
</g>
<g>
</g>
<g>
</g>
<g>
</g>
<g>
</g>
<g>
</g>
<g>
</g>
<g>
</g>
<g>
</g>
<g>
</g>
<g>
</g>
<g>
</g>
<g>
</g>
<g>
</g>
</svg>
