<?xml version="1.0"?>
<svg xmlns="http://www.w3.org/2000/svg" xmlns:xlink="http://www.w3.org/1999/xlink" xmlns:svgjs="http://svgjs.com/svgjs" version="1.1" width="512" height="512" x="0" y="0" viewBox="0 0 382.861 382.861" style="enable-background:new 0 0 512 512" xml:space="preserve" class=""><g>
<path xmlns="http://www.w3.org/2000/svg" style="" d="M311.63,184.852c-1.567-5.225-6.269-9.404-11.494-10.449l-75.233-15.673l22.465-140.539  c1.045-6.792-2.612-13.584-8.882-16.718c-6.269-3.135-14.106-1.045-18.286,4.18L73.915,179.628  c-3.135,4.18-4.702,9.404-3.135,14.106c1.567,5.224,5.224,8.882,9.927,10.449l73.143,24.555l-29.257,135.314  c-1.567,6.792,2.09,14.106,8.359,17.241c2.09,1.045,4.702,1.567,7.314,1.567c4.18,0,8.882-2.09,11.494-5.224l157.257-178.155  C312.675,195.824,313.719,190.077,311.63,184.852z" fill="#53e4eb" data-original="#4dcfe0" class=""/>
<g xmlns="http://www.w3.org/2000/svg">
</g>
<g xmlns="http://www.w3.org/2000/svg">
</g>
<g xmlns="http://www.w3.org/2000/svg">
</g>
<g xmlns="http://www.w3.org/2000/svg">
</g>
<g xmlns="http://www.w3.org/2000/svg">
</g>
<g xmlns="http://www.w3.org/2000/svg">
</g>
<g xmlns="http://www.w3.org/2000/svg">
</g>
<g xmlns="http://www.w3.org/2000/svg">
</g>
<g xmlns="http://www.w3.org/2000/svg">
</g>
<g xmlns="http://www.w3.org/2000/svg">
</g>
<g xmlns="http://www.w3.org/2000/svg">
</g>
<g xmlns="http://www.w3.org/2000/svg">
</g>
<g xmlns="http://www.w3.org/2000/svg">
</g>
<g xmlns="http://www.w3.org/2000/svg">
</g>
<g xmlns="http://www.w3.org/2000/svg">
</g>
</g></svg>
