<?xml version="1.0" encoding="utf-8"?>
<!-- Generator: Adobe Illustrator 24.0.1, SVG Export Plug-In . SVG Version: 6.00 Build 0)  -->
<svg version="1.1" id="Layer_1" xmlns="http://www.w3.org/2000/svg" xmlns:xlink="http://www.w3.org/1999/xlink" x="0px" y="0px"
	 viewBox="0 0 1920 1080" style="enable-background:new 0 0 1920 1080;" xml:space="preserve">
<style type="text/css">
	.st0{fill:#222222;}
	.st1{fill:url(#SVGID_1_);}
	.st2{fill:url(#SVGID_2_);}
	.st3{fill:url(#SVGID_3_);}
	.st4{opacity:0.2;fill:url(#SVGID_4_);}
	.st5{fill:url(#SVGID_5_);}
	.st6{opacity:0.31;fill:url(#SVGID_6_);}
	.st7{fill:url(#SVGID_7_);}
</style>
<rect class="st0" width="1920" height="1080"/>
<linearGradient id="SVGID_1_" gradientUnits="userSpaceOnUse" x1="630" y1="-127" x2="630" y2="-127">
	<stop  offset="0" style="stop-color:#FDC830"/>
	<stop  offset="1" style="stop-color:#F37335"/>
</linearGradient>
<path class="st1" d="M630-127"/>
<linearGradient id="SVGID_2_" gradientUnits="userSpaceOnUse" x1="52.1171" y1="602.8422" x2="305.6885" y2="-22.1578">
	<stop  offset="0" style="stop-color:#232526"/>
	<stop  offset="1" style="stop-color:#414345"/>
</linearGradient>
<path class="st2" d="M0,361c146.18,82.2,204.45,81.99,228,60c23.88-22.3,1.61-57.25,27-92c51.14-70,202.76-12.06,225-59
	c18.65-39.36-80.99-94.81-70-165c7.88-50.37,68.88-83.68,125-105C357.67,0.67,180.33,1.33,3,2C2,121.67,1,241.33,0,361z"/>
<linearGradient id="SVGID_3_" gradientUnits="userSpaceOnUse" x1="464" y1="-243" x2="464" y2="-243">
	<stop  offset="0" style="stop-color:#FDC830"/>
	<stop  offset="1" style="stop-color:#F37335"/>
</linearGradient>
<path class="st3" d="M464-243"/>
<linearGradient id="SVGID_4_" gradientUnits="userSpaceOnUse" x1="1221.8745" y1="733.4436" x2="1452.2316" y2="-23.6992">
	<stop  offset="0" style="stop-color:#FFFFFF"/>
	<stop  offset="1" style="stop-color:#000000"/>
</linearGradient>
<path class="st4" d="M1920,434c-65.62-46.21-171.74-106.21-307-114c-141.15-8.13-206.64,46.79-307,48
	c-108.39,1.31-267.46-59.89-468-368c360.67,0,721.33,0,1082,0C1920,144.67,1920,289.33,1920,434z"/>
<linearGradient id="SVGID_5_" gradientUnits="userSpaceOnUse" x1="1251.6898" y1="606.4866" x2="1644.547" y2="-470.2991">
	<stop  offset="0" style="stop-color:#FDC830"/>
	<stop  offset="1" style="stop-color:#F37335"/>
</linearGradient>
<path class="st5" d="M1920,389c-68.49-57.72-170.81-123.8-299-130c-112.7-5.45-168.35,39.09-252,48
	c-109.83,11.69-268.89-37.96-485-307c345.33,0,690.67,0,1036,0C1920,129.67,1920,259.33,1920,389z"/>
<linearGradient id="SVGID_6_" gradientUnits="userSpaceOnUse" x1="992.6989" y1="1209.1787" x2="878.4132" y2="298.4644">
	<stop  offset="0" style="stop-color:#FFFFFF"/>
	<stop  offset="1" style="stop-color:#000000"/>
</linearGradient>
<path class="st6" d="M0,760c50.47-52.04,157.39-147.22,316-186c61.73-15.09,133.29-32.59,218-11c57.21,14.58,71.29,34.47,141,49
	c77.99,16.25,141.44,8.25,173,4c110.89-14.94,140.4-52.45,220-75c164.81-46.68,328.51,31.93,464,97
	c70.58,33.89,132.19,73.43,225,133c68.81,44.16,124.49,83.19,163,111c0,66,0,132,0,198c-637.67-3-1275.33-6-1913-9
	C4.67,967.33,2.33,863.67,0,760z"/>
<linearGradient id="SVGID_7_" gradientUnits="userSpaceOnUse" x1="1084.5175" y1="1210.869" x2="213.0889" y2="-128.4167">
	<stop  offset="0" style="stop-color:#FDC830"/>
	<stop  offset="1" style="stop-color:#F37335"/>
</linearGradient>
<path class="st7" d="M0,796c240.73-186.53,412.73-205.57,528-185c100.2,17.88,131.11,60.99,250,64c173.04,4.38,220.74-84.08,384-91
	c105.69-4.48,181.79,30.35,334,100c108.17,49.5,261.35,133.32,424,275c0,40.33,0,80.67,0,121c-640,0-1280,0-1920,0
	C0,985.33,0,890.67,0,796z"/>
</svg>
