<?xml version="1.0"?>
<svg xmlns="http://www.w3.org/2000/svg" xmlns:xlink="http://www.w3.org/1999/xlink" xmlns:svgjs="http://svgjs.com/svgjs" version="1.1" width="512" height="512" x="0" y="0" viewBox="0 0 512 512.00026" style="enable-background:new 0 0 512 512" xml:space="preserve" class=""><g><path xmlns="http://www.w3.org/2000/svg" d="m128.019531 430.601562c-.433593.171876-.867187.347657-1.386719.519532-17.578124-27.042969-27.28125-58.441406-28.03125-90.683594 14.753907-1.476562 31.847657 12.84375 40.351563 34.710938 9.546875 24.558593 4.6875 49.378906-10.933594 55.453124zm0 0" fill="#e57e25" data-original="#e57e25" style="" class=""/><path xmlns="http://www.w3.org/2000/svg" d="m339.066406 499.9375c-46.203125 18.03125-97.871094 15.765625-142.316406-6.246094-1.558594-3.300781-2.042969-7-1.390625-10.589844 3.472656-18.832031 38.878906-28.027343 78.882813-20.566406 32.71875 6.160156 58.578124 21.609375 64.824218 37.402344zm0 0" fill="#e57e25" data-original="#e57e25" style="" class=""/><path xmlns="http://www.w3.org/2000/svg" d="m444.417969 382.089844c3.039062-30.980469-15.878907-58.140625-42.089844-60.65625-26.207031-2.519532-49.894531 20.566406-52.933594 51.546875-3.039062 30.980469 15.96875 58.226562 42.175781 60.746093 16.980469 1.078126 33.191407-7.210937 42.261719-21.609374-19.375 40.179687-53.226562 71.550781-94.765625 87.820312-6.246094-15.792969-32.105468-31.242188-64.824218-37.402344-40.003907-7.460937-75.410157 1.734375-78.882813 20.566406-.652344 3.589844-.167969 7.289063 1.390625 10.589844-28.640625-14.074218-52.890625-35.710937-70.117188-62.570312.519532-.171875.953126-.347656 1.386719-.519532 15.621094-6.074218 20.480469-30.894531 10.933594-55.453124-8.503906-21.867188-25.597656-36.1875-40.351563-34.710938-.117187-.660156-.144531-1.332031-.085937-1.996094l4.597656-43.390625c9.109375-38.480469 30.902344-72.777343 61.875-97.367187l22.734375.175781h.089844l174.25 1.125h.089844l24.558594.175781c54.984374 45.089844 77.53125 118.785156 57.1875 186.921875.257812-1.316406.433593-2.652343.519531-3.992187zm0 0" fill="#e6e7e8" data-original="#e6e7e8" style="" class=""/><path xmlns="http://www.w3.org/2000/svg" d="m394.171875 165.835938c-.824219 11.414062-3.339844 22.644531-7.460937 33.324218-2.988282 7.902344-6.863282 15.441406-11.542969 22.476563-58.726563 40.667969-136.199219 41.832031-196.121094 2.949219-11.894531-16.972657-19.082031-36.796876-20.828125-57.449219 2.738281 9.382812 8.699219 17.496093 16.835938 22.910156 20.828124 15.535156 58.316406 25.859375 101.011718 25.859375 42 0 78.796875-9.976562 99.796875-24.902344 9.144531-5.6875 15.714844-14.714844 18.308594-25.167968zm0 0" fill="#95a5a5" data-original="#95a5a5" style=""/><path xmlns="http://www.w3.org/2000/svg" d="m341.496094 58.054688c-8.761719 11.542968-32.539063 19.699218-60.484375 19.699218-31.5 0-57.707031-10.414062-63-24.296875 38.753906-21.796875 86.457031-20.019531 123.484375 4.597657zm0 0" fill="#95a5a5" data-original="#95a5a5" style=""/><path xmlns="http://www.w3.org/2000/svg" d="m394.519531 156.722656c0 1.042969 0 2.257813-.085937 3.386719v.085937c0 1.824219-.085938 3.730469-.261719 5.640626-2.59375 10.453124-9.164063 19.480468-18.308594 25.167968-21 14.925782-57.796875 24.902344-99.796875 24.902344-42.695312 0-80.183594-10.324219-101.011718-25.859375-8.136719-5.414063-14.097657-13.527344-16.835938-22.910156-.105469-.425781-.164062-.863281-.171875-1.300781-.175781-1.910157-.261719-3.816407-.261719-5.640626v-.085937c-.085937-1.128906-.085937-2.34375-.085937-3.386719-.039063-42.792968 23.019531-82.277344 60.3125-103.265625 5.292969 13.882813 31.5 24.296875 63 24.296875 27.945312 0 51.722656-8.15625 60.484375-19.699218 33.125 21.898437 53.042968 58.960937 53.023437 98.667968zm0 0" fill="#e6e7e8" data-original="#e6e7e8" style="" class=""/><path xmlns="http://www.w3.org/2000/svg" d="m233.730469 114.011719c-14.28125-2.894531-28.578125 8.1875-31.9375 24.753906s5.492187 32.34375 19.773437 35.238281c14.277344 2.894532 28.578125-8.1875 31.9375-24.753906s-5.496094-32.34375-19.773437-35.238281zm0 0" fill="#2c2f38" data-original="#2c2f38" style=""/><path xmlns="http://www.w3.org/2000/svg" d="m355.816406 121.492188c-4.792968 0-8.679687-3.886719-8.679687-8.679688v-104.132812c0-4.792969 3.886719-8.679688 8.679687-8.679688 4.792969 0 8.675782 3.886719 8.675782 8.679688v104.132812c0 4.792969-3.882813 8.679688-8.675782 8.679688zm0 0" fill="#a5a5a4" data-original="#a5a5a4" style=""/><path xmlns="http://www.w3.org/2000/svg" d="m323.273438 156.203125c0 9.585937-7.769532 17.355469-17.355469 17.355469-9.585938 0-17.355469-7.769532-17.355469-17.355469s7.769531-17.355469 17.355469-17.355469c9.585937 0 17.355469 7.769532 17.355469 17.355469zm0 0" fill="#2c2f38" data-original="#2c2f38" style=""/><path xmlns="http://www.w3.org/2000/svg" d="m240.140625 249.492188c7.34375 14.84375 6.625 32.40625-1.910156 46.601562-11.59375 22.328125-39.054688 31.09375-61.441407 19.609375-21.140624-13.640625-27.269531-41.808594-13.710937-63 5.769531-10.136719 14.878906-17.960937 25.773437-22.128906" fill="#f29c1f" data-original="#f29c1f" style="" class=""/><path xmlns="http://www.w3.org/2000/svg" d="m444.417969 382.089844c-.085938 1.339844-.261719 2.675781-.519531 3.992187-2.613282 8.917969-5.984376 17.597657-10.066407 25.949219v.085938c-9.070312 14.398437-25.28125 22.6875-42.261719 21.609374-26.207031-2.519531-45.125-29.679687-42.175781-60.746093 2.949219-31.070313 26.640625-54.066407 52.933594-51.546875 26.296875 2.515625 45.128906 29.675781 42.089844 60.65625zm0 0" fill="#f29c1f" data-original="#f29c1f" style="" class=""/><path xmlns="http://www.w3.org/2000/svg" d="m270.988281 347.117188h17.789063c9.46875 0 17.140625 7.675781 17.140625 17.140624v35.144532c0 9.464844-7.671875 17.140625-17.140625 17.140625h-17.789063c-9.464843 0-17.136719-7.675781-17.136719-17.140625v-35.144532c0-9.464843 7.671876-17.140624 17.136719-17.140624zm0 0" fill="#7f8c8d" data-original="#7f8c8d" style=""/><path xmlns="http://www.w3.org/2000/svg" d="m110.230469 338.441406h-21.652344c-1.175781-.003906-2.339844-.242187-3.417969-.703125l-53.804687-23.074219c-3.207031-1.355468-5.292969-4.496093-5.300781-7.976562v-2.957031c0-4.792969 3.882812-8.679688 8.675781-8.679688h95.457031c4.792969 0 8.679688 3.886719 8.679688 8.679688v12.710937c0 2.902344-1.449219 5.609375-3.863282 7.21875l-19.957031 13.324219c-1.425781.949219-3.101563 1.457031-4.816406 1.457031zm0 0" fill="#bdc3c7" data-original="#bdc3c7" style=""/><path xmlns="http://www.w3.org/2000/svg" d="m32.457031 173.558594c6.902344.027344 13.164063-4.035156 15.949219-10.351563.296875-.675781.585938-1.363281.871094-2.058593 1.84375-4.855469 2.796875-10.007813 2.808594-15.203126-.023438-5.199218-.988282-10.347656-2.84375-15.203124-1.699219-4.453126-4.039063-8.632813-6.945313-12.410157-2.402344-3.203125-5.285156-6.023437-8.539063-8.363281-2.21875-1.746094-4.894531-2.8125-7.703124-3.074219-2.820313.253907-5.507813 1.320313-7.734376 3.074219-3.253906 2.335938-6.132812 5.15625-8.539062 8.363281-2.90625 3.777344-5.246094 7.957031-6.941406 12.410157-3.785156 9.769531-3.785156 20.601562 0 30.371093.261718.695313.550781 1.382813.867187 2.058594 2.773438 6.328125 9.035157 10.40625 15.941407 10.386719zm0 0" fill="#f9a300" data-original="#67b9cc" style="" class=""/><path xmlns="http://www.w3.org/2000/svg" d="m43.410156 297.21875c0 4.03125-1.597656 7.894531-4.445312 10.742188-2.847656 2.847656-6.714844 4.449218-10.742188 4.445312h-4.339844c-4.027343.003906-7.890624-1.597656-10.738281-4.445312-2.851562-2.847657-4.449219-6.710938-4.445312-10.742188v-47.726562c-.003907-4.027344 1.59375-7.894532 4.445312-10.742188 2.847657-2.847656 6.710938-4.445312 10.738281-4.445312h4.339844c4.027344 0 7.894532 1.597656 10.742188 4.445312s4.445312 6.714844 4.445312 10.742188zm0 0" fill="#d1d4d1" data-original="#d1d4d1" style="" class=""/><path xmlns="http://www.w3.org/2000/svg" d="m26.054688 242.984375c-4.792969 0-8.679688-3.886719-8.679688-8.679687v-26.035157c0-4.792969 3.886719-8.675781 8.679688-8.675781 4.792968 0 8.675781 3.882812 8.675781 8.675781v26.035157c0 4.792968-3.882813 8.679687-8.675781 8.679687zm0 0" fill="#95a5a5" data-original="#95a5a5" style=""/></g></svg>
