<svg id="Capa_1" enable-background="new 0 0 512 512" height="512" viewBox="0 0 512 512" width="512" xmlns="http://www.w3.org/2000/svg"><g><path d="m166 368.211-10.605-10.605c-10.693-10.693-28.096-10.693-38.789 0l-10.606 10.605-10.605-10.605c-6.533-6.533-14.15-7.91-19.395-7.91h-15v-32.696c0-27.612 14.897-52.69 38.862-65.449l9.185-4.893 7.808 6.899c13.191 11.681 44.451 25.081 58.491 15.19l11.851-8.379c3.724 6.318 23.803 24.009 23.803 56.632v32.695h-15c-5.244 0-12.861 1.377-19.395 7.91z" fill="#f25a3c"/><path d="m406 368.211-10.605-10.605c-10.283-10.283-28.506-10.283-38.789 0l-10.606 10.605-10.605-10.605c-6.533-6.533-14.15-7.91-19.395-7.91h-15v-32.696c0-18.882 7.046-36.973 19.849-50.933l9.961-10.869 11.045 9.771c5.185 4.599 11.806 7.031 19.145 7.031 41.862-.943 46.314 2.406 54.346-3.252l11.851-8.379c3.724 6.317 23.803 24.008 23.803 56.631v32.695h-15c-5.244 0-12.861 1.377-19.395 7.91z" fill="#e63a3a"/><path d="m206.811 452h-141.622l-36.357-109.058 6.563-6.548c18.281-18.296 48.97-21.577 70.591-8.364 18.34-11.25 41.689-11.25 60.029 0 21.621-13.198 52.28-9.917 70.591 8.364l6.563 6.548z" fill="#ffd866"/><path d="m446.811 452h-141.622l-36.357-109.058 6.563-6.548c18.267-18.296 48.955-21.577 70.591-8.364 18.34-11.25 41.689-11.25 60.029 0 21.606-13.198 52.295-9.917 70.591 8.364l6.563 6.548z" fill="#ffbe40"/><path d="m406 302h-45c-32.273 0-60-25.803-60-60 0-33.091 26.909-60 60-60h30v15c0 8.276 6.724 15 15 15 24.814 0 45 20.186 45 45 0 25.027-20.463 45-45 45z" fill="#f25a3c"/><path d="m61 122v75l45 30 45-30v-75z" fill="#bfd6ff"/><path d="m211 257c0 25.822-21.1 45-45 45-25.499 0-50.099-9.3-69-26.1-22.8-19.801-36-48.6-36-78.9h90c0 8.401 6.599 15 15 15 24.901 0 45 20.099 45 45z" fill="#ff7f40"/><path d="m196 122h-30v-30h30c8.276 0 15-6.724 15-15v-62h30v62c0 24.814-20.186 45-45 45z" fill="#bfd6ff"/><path d="m181 152h-150v-137h150z" fill="#ecf2ff"/><path d="m0 0h512v30h-512z" fill="#9eb1d9"/><path d="m46 422h420v90h-420z" fill="#9eb1d9"/><path d="m256 422h210v90h-210z" fill="#8fa3cc"/><path d="m46 452c-8.276 0-15 6.724-15 15s6.724 15 15 15h420c8.276 0 15-6.724 15-15s-6.724-15-15-15z" fill="#d9e5ff"/><path d="m466 452h-210v30h210c8.276 0 15-6.724 15-15s-6.724-15-15-15z" fill="#bfd6ff"/><path d="m46 512c-24.814 0-46-20.186-46-45s21.186-45 46-45 45 20.186 45 45-20.186 45-45 45z" fill="#ecf2ff"/><circle cx="46" cy="467" fill="#9eb1d9" r="15"/><path d="m466 512c-24.814 0-45-20.186-45-45s20.186-45 45-45 46 20.186 46 45-21.186 45-46 45z" fill="#d9e5ff"/><circle cx="466" cy="467" fill="#8fa3cc" r="15"/><path d="m256 512c-24.814 0-45-20.186-45-45s20.186-45 45-45 45 20.186 45 45-20.186 45-45 45z" fill="#ecf2ff"/><path d="m301 467c0-24.814-20.186-45-45-45v90c24.814 0 45-20.186 45-45z" fill="#d9e5ff"/><circle cx="256" cy="467" fill="#9eb1d9" r="15"/><g fill="#8fa3cc"><path d="m271 467c0-8.276-6.724-15-15-15v30c8.276 0 15-6.724 15-15z"/><path d="m256 0h256v30h-256z"/></g></g></svg>