<?xml version="1.0"?>
<svg xmlns="http://www.w3.org/2000/svg" xmlns:xlink="http://www.w3.org/1999/xlink" xmlns:svgjs="http://svgjs.com/svgjs" version="1.1" width="512" height="512" x="0" y="0" viewBox="0 0 512 512.0153" style="enable-background:new 0 0 512 512" xml:space="preserve" class=""><g><path xmlns="http://www.w3.org/2000/svg" d="m188.667969 143.722656-14.582031 31.5-40.175782 86.605469-7.289062 15.707031c-1.945313 4.1875-2.140625 8.976563-.546875 13.308594 1.597656 4.332031 4.851562 7.851562 9.050781 9.777344l44.167969 20.480468 48.597656 22.519532 86.347656 40.046875h.085938-.085938l30 3.238281 22.328125-7.925781 3.554688-7.636719 40.179687-86.605469 14.582031-31.5zm0 0" fill="#e6e7e8" data-original="#e6e7e8" style="" class=""/><g xmlns="http://www.w3.org/2000/svg" fill="#bdc3c7"><path d="m221.296875 197.09375-40.09375 86.605469-47.292969-21.871094 40.175782-86.605469zm0 0" fill="#bdc3c7" data-original="#bdc3c7" style="" class=""/><path d="m364.308594 368.65625 5.8125 2.6875 40.179687-86.605469-47.292969-21.953125-7.203124 15.621094v.085938l-34.0625 65.917968zm0 0" fill="#bdc3c7" data-original="#bdc3c7" style="" class=""/><path d="m295.320312 326.480469-3.90625 8.332031-78.710937-36.449219 40.09375-86.605469 73.328125 33.929688zm0 0" fill="#bdc3c7" data-original="#bdc3c7" style="" class=""/></g><path xmlns="http://www.w3.org/2000/svg" d="m325.519531 433.914062-6.335937-28.378906-4.859375-21.78125v-.085937h-.085938l-12.757812-57.101563-1.300781.261719c-4.6875.992187-9.308594-1.9375-10.414063-6.597656l-12.238281-54.757813c-1.042969-4.695312 1.90625-9.351562 6.597656-10.410156l42-9.375 12.757812-2.863281c4.691407-1.019531 9.332032 1.917969 10.414063 6.597656l6.507813 28.984375v.085938l5.726562 25.6875c1.023438 4.6875-1.917969 9.328124-6.59375 10.410156l-2.605469.609375 11.976563 53.457031 2.257812 10.324219 12.320313 54.933593zm0 0" fill="#d1d4d1" data-original="#d1d4d1" style="" class=""/><path xmlns="http://www.w3.org/2000/svg" d="m464.800781 99.464844-184.667969-85.566406c35.398438-17.871094 77.03125-18.542969 112.988282-1.820313 9.339844 4.28125 18.113281 9.703125 26.117187 16.140625 13.5 10.582031 24.691407 23.8125 32.890625 38.878906 5.761719 10.121094 10.03125 21.023438 12.671875 32.367188zm0 0" fill="#ff6347" data-original="#4482c3" style="" class=""/><path xmlns="http://www.w3.org/2000/svg" d="m203.332031 112.222656 17.007813-36.710937c12.328125-26.722657 33.382812-48.449219 59.707031-61.613281h.085937l184.667969 85.566406.085938.085937c2.503906 10.078125 3.757812 20.425781 3.730469 30.808594-.019532 18.851563-4.136719 37.476563-12.0625 54.582031l-17.09375 36.796875zm0 0" fill="#e6e7e8" data-original="#e6e7e8" style="" class=""/><path xmlns="http://www.w3.org/2000/svg" d="m312.8125 78.445312c0 9.585938-7.769531 17.355469-17.355469 17.355469-9.585937 0-17.355469-7.769531-17.355469-17.355469 0-9.582031 7.769532-17.355468 17.355469-17.355468 9.585938 0 17.355469 7.773437 17.355469 17.355468zm0 0" fill="#2c2f38" data-original="#2c2f38" style=""/><path xmlns="http://www.w3.org/2000/svg" d="m313.160156 120.882812c0 4.792969-3.882812 8.675782-8.675781 8.675782s-8.679687-3.882813-8.679687-8.675782c0-4.792968 3.886718-8.679687 8.679687-8.679687s8.675781 3.886719 8.675781 8.679687zm0 0" fill="#e64c3c" data-original="#e64c3c" style=""/><path xmlns="http://www.w3.org/2000/svg" d="m439.460938 221.738281-14.578126 31.5-236.214843-109.515625 14.664062-31.5zm0 0" fill="#ff6347" data-original="#4482c3" style="" class=""/><path xmlns="http://www.w3.org/2000/svg" d="m234.3125 477.304688h-121.492188l17.355469-69.425782h86.78125zm0 0" fill="#bdc3c7" data-original="#bdc3c7" style="" class=""/><path xmlns="http://www.w3.org/2000/svg" d="m199.601562 407.878906v-39.050781l-52.070312-24.125v63.175781zm0 0" fill="#d1d4d1" data-original="#d1d4d1" style="" class=""/><path xmlns="http://www.w3.org/2000/svg" d="m416.550781 503.335938h-121.492187l17.355468-69.421876h86.78125zm0 0" fill="#bdc3c7" data-original="#bdc3c7" style="" class=""/><path xmlns="http://www.w3.org/2000/svg" d="m321.09375 295.066406h-.089844c-4.78125-.023437-8.644531-3.914062-8.632812-8.699218.011718-4.785157 3.894531-8.65625 8.679687-8.65625 4.78125 0 8.664063 3.871093 8.675781 8.65625.011719 4.785156-3.851562 8.675781-8.632812 8.699218zm0 0" fill="#2c2f38" data-original="#2c2f38" style=""/><path xmlns="http://www.w3.org/2000/svg" d="m260.347656 485.980469h-208.273437c-4.792969 0-8.675781-3.882813-8.675781-8.675781 0-4.792969 3.882812-8.679688 8.675781-8.679688h208.273437c4.792969 0 8.675782 3.886719 8.675782 8.679688 0 4.792968-3.882813 8.675781-8.675782 8.675781zm0 0" fill="#141414" data-original="#cb9080" style="" class=""/><path xmlns="http://www.w3.org/2000/svg" d="m17.363281 485.980469h-8.675781c-4.792969 0-8.6796875-3.882813-8.6796875-8.675781 0-4.792969 3.8867185-8.679688 8.6796875-8.679688h8.675781c4.792969 0 8.679688 3.886719 8.679688 8.679688 0 4.792968-3.886719 8.675781-8.679688 8.675781zm0 0" fill="#141414" data-original="#cb9080" style="" class=""/><path xmlns="http://www.w3.org/2000/svg" d="m494.652344 512.015625h-260.339844c-4.792969 0-8.675781-3.886719-8.675781-8.679687 0-4.792969 3.882812-8.675782 8.675781-8.675782h260.339844c4.792968 0 8.675781 3.882813 8.675781 8.675782 0 4.792968-3.882813 8.679687-8.675781 8.679687zm0 0" fill="#141414" data-original="#cb9080" style="" class=""/><path xmlns="http://www.w3.org/2000/svg" d="m477.730469 34.726562-25.601563 32.371094c-8.199218-15.066406-19.390625-28.296875-32.890625-38.878906l35.929688-19.960938zm0 0" fill="#a5a5a4" data-original="#a5a5a4" style="" class=""/><path xmlns="http://www.w3.org/2000/svg" d="m179.292969 321.101562-44.167969-20.480468 10.933594 43.390625 1.472656.691406 42.636719 19.753906 9.433593 4.371094 99.96875 46.339844 19.613282-9.632813-4.859375-21.78125zm0 0" fill="#a5a5a4" data-original="#a5a5a4" style="" class=""/></g></svg>
