<svg id="Capa_1" enable-background="new 0 0 512 512" height="512" viewBox="0 0 512 512" width="512" xmlns="http://www.w3.org/2000/svg"><g><path d="m324.422 40.005h104.848v30h-104.848z" fill="#293e65"/><path d="m435.186 70.005h30v168.351h-30z" fill="#293e65"/><circle cx="450.186" cy="55.005" fill="#fec258" r="36.67"/><g><path d="m222.834 260.35h-132.02l24.23-169.57h83.56z" fill="#fee05b"/></g><g fill="#fec258"><path d="m222.834 260.35h-66.01v-169.57h41.78z"/><path d="m303.505 18.335h-106.103v73.34h106.103c20.252 0 36.67-16.418 36.67-36.67 0-20.252-16.418-36.67-36.67-36.67z"/><path d="m492.691 316.042-28.712-8.691 7.877-26.024v-27.971h-43.34v27.971l7.877 26.024-28.713 8.691-9.164-30.274v-62.412h103.34v62.412z"/><path d="m266.834 348.37v104.29h-220.02v-104.29c0-30.38 12.31-57.88 32.22-77.79s47.41-32.22 77.79-32.22c60.76 0 110.01 49.25 110.01 110.01z"/></g><path d="m266.834 348.37v104.29h-110.01v-214.3c60.76 0 110.01 49.25 110.01 110.01z" fill="#fd996b"/><circle cx="156.824" cy="348.37" fill="#fee05b" r="36.67"/><path d="m193.494 348.37c0 20.25-16.42 36.67-36.67 36.67v-73.34c20.25 0 36.67 16.41 36.67 36.67z" fill="#fec258"/><path d="m10.144 438.66h293.36v73.34h-293.36z" fill="#4e588b"/><path d="m156.824 438.66h146.68v73.34h-146.68z" fill="#293e65"/><path d="m211.834 55.01c0 30.37-24.63 55-55.01 55s-55.01-24.63-55.01-55c0-30.38 24.63-55.01 55.01-55.01 30.38 0 55.01 24.63 55.01 55.01z" fill="#fec258"/><path d="m211.834 55.01c0 30.37-24.63 55-55.01 55v-110.01c30.38 0 55.01 24.63 55.01 55.01z" fill="#fd996b"/><path d="m140.844 40.01h31.96v30h-31.96z" fill="#fee05b"/><path d="m156.824 40.01h15.98v30h-15.98z" fill="#fec258"/></g></svg>