<?xml version="1.0" encoding="utf-8"?>
<!-- Generator: Adobe Illustrator 24.0.1, SVG Export Plug-In . SVG Version: 6.00 Build 0)  -->
<svg version="1.1" id="Layer_1" xmlns="http://www.w3.org/2000/svg" xmlns:xlink="http://www.w3.org/1999/xlink" x="0px" y="0px"
	 viewBox="0 0 1920 1080" style="enable-background:new 0 0 1920 1080;" xml:space="preserve">
<style type="text/css">
	.st0{fill:url(#SVGID_1_);}
	.st1{fill:url(#SVGID_2_);}
	.st2{fill:url(#SVGID_3_);}
	.st3{fill:url(#SVGID_4_);}
	.st4{opacity:0.45;fill:url(#SVGID_5_);}
	.st5{fill:url(#SVGID_6_);}
	.st6{fill:url(#SVGID_7_);}
	.st7{fill:url(#SVGID_8_);}
	.st8{fill:url(#SVGID_9_);}
	.st9{fill:url(#SVGID_10_);}
	.st10{fill:url(#SVGID_11_);}
</style>
<linearGradient id="SVGID_1_" gradientUnits="userSpaceOnUse" x1="936.6665" y1="14.4963" x2="973.9998" y2="854.4963">
	<stop  offset="0" style="stop-color:#232526"/>
	<stop  offset="1" style="stop-color:#141414"/>
</linearGradient>
<rect y="-1" class="st0" width="1920" height="1081"/>
<linearGradient id="SVGID_2_" gradientUnits="userSpaceOnUse" x1="1187.5276" y1="950.7971" x2="933.8711" y2="291.2903">
	<stop  offset="0" style="stop-color:#000000"/>
	<stop  offset="1" style="stop-color:#222222"/>
</linearGradient>
<path class="st1" d="M1.75,719c150.15,66.72,359.18,120.21,545.72-3C708.39,609.7,709.9,472.24,856.3,412
	c220.8-90.84,348.75,172.09,626.3,157.5c107.47-5.65,258.58-54.02,437.4-252.5c0-104.33,0-208.67,0-313C1280.33,4,640.67,4,1,4
	C1.25,242.33,1.5,480.67,1.75,719z"/>
<linearGradient id="SVGID_3_" gradientUnits="userSpaceOnUse" x1="813.5317" y1="600.3591" x2="631.7293" y2="98.0382">
	<stop  offset="0" style="stop-color:#FC4A1A"/>
	<stop  offset="0.3635" style="stop-color:#FA7323"/>
	<stop  offset="1" style="stop-color:#F7B733"/>
</linearGradient>
<path class="st2" d="M0,554c164.93,59.61,286.87,51.05,368,32c259.75-60.99,298.81-279.32,587-331c88.67-15.9,151.19-7.18,243-57
	c99.6-54.04,159.82-136.91,195-198C928.33-0.33,463.67-0.67-1-1c0.23,126.89,0.46,253.78,0.69,380.67c0.01,3.11,0.01,6.22,0.02,9.33
	C-0.2,444-0.1,499,0,554z"/>
<linearGradient id="SVGID_4_" gradientUnits="userSpaceOnUse" x1="-10" y1="226" x2="-10" y2="226">
	<stop  offset="0" style="stop-color:#FC4A1A"/>
	<stop  offset="0.3635" style="stop-color:#FA7323"/>
	<stop  offset="1" style="stop-color:#F7B733"/>
</linearGradient>
<path class="st3" d="M-10,226"/>
<linearGradient id="SVGID_5_" gradientUnits="userSpaceOnUse" x1="0" y1="193.5" x2="1165" y2="193.5">
	<stop  offset="0" style="stop-color:#FF8455"/>
	<stop  offset="0.9947" style="stop-color:#FFBF3F"/>
</linearGradient>
<path class="st4" d="M0,384c96.76-104.25,184.92-137.29,252-146c124.96-16.22,169.57,57.48,340,62c23.7,0.63,147.17,2.53,286-59
	c152.53-67.6,243.28-176.18,287-238C777,4,389,5,1,6C0.67,132,0.33,258,0,384z"/>
<linearGradient id="SVGID_6_" gradientUnits="userSpaceOnUse" x1="524.8167" y1="-96.4599" x2="587.4834" y2="300.8734">
	<stop  offset="0" style="stop-color:#FDC830"/>
	<stop  offset="0.191" style="stop-color:#FBB731"/>
	<stop  offset="1" style="stop-color:#F37335"/>
</linearGradient>
<path class="st5" d="M1,342c85.04-85.27,213.72-184.63,365-176c112.47,6.41,161.99,55.16,263,70c109.21,16.04,273.85-13.57,504-236
	C755.33-0.33,377.67-0.67,0-1C0.33,113.33,0.67,227.67,1,342z"/>
<linearGradient id="SVGID_7_" gradientUnits="userSpaceOnUse" x1="-238" y1="-5" x2="-238" y2="-5">
	<stop  offset="0" style="stop-color:#FC4A1A"/>
	<stop  offset="0.3635" style="stop-color:#FA7323"/>
	<stop  offset="1" style="stop-color:#F7B733"/>
</linearGradient>
<path class="st6" d="M-238-5"/>
<linearGradient id="SVGID_8_" gradientUnits="userSpaceOnUse" x1="2113" y1="705" x2="2113" y2="705">
	<stop  offset="0" style="stop-color:#FF8008"/>
	<stop  offset="0.0504" style="stop-color:#FF840A"/>
	<stop  offset="0.9947" style="stop-color:#FFC837"/>
</linearGradient>
<path class="st7" d="M2113,705"/>
<linearGradient id="SVGID_9_" gradientUnits="userSpaceOnUse" x1="535.6686" y1="1306.5424" x2="1083.2241" y2="726.9868">
	<stop  offset="0" style="stop-color:#141414"/>
	<stop  offset="0.9947" style="stop-color:#141414"/>
</linearGradient>
<path class="st8" d="M-1,641c125.6,163.65,310.01,350.42,499.24,305c208.38-50.01,257.02-341.84,457.26-485
	c163.06-116.58,444.53-147.34,962.5,254c0,120.67,0,241.33,0,362c-639.67,0-1279.33,0-1919,0C-1,931.67-1,786.33-1,641z"/>
<linearGradient id="SVGID_10_" gradientUnits="userSpaceOnUse" x1="1397.2861" y1="897.6111" x2="1438.191" y2="1105.365">
	<stop  offset="0" style="stop-color:#FF8008"/>
	<stop  offset="0.0504" style="stop-color:#FF840A"/>
	<stop  offset="0.9947" style="stop-color:#FFC837"/>
</linearGradient>
<path class="st9" d="M908,1081c90.5-132.23,174.39-167.47,233-176c113.21-16.48,162.23,62.32,283,38
	c106.01-21.35,118.38-92.15,221-118c90.27-22.74,184.71,5.85,275,59c0,65.33,0,130.67,0,196
	C1582.67,1080.33,1245.33,1080.67,908,1081z"/>
<linearGradient id="SVGID_11_" gradientUnits="userSpaceOnUse" x1="812.8295" y1="894.5648" x2="18.533" y2="337.8031">
	<stop  offset="0" style="stop-color:#F7971E"/>
	<stop  offset="0.9894" style="stop-color:#FFC837"/>
</linearGradient>
<path class="st10" d="M0,837c62.96,49.08,158.5,108.64,239,79c87.2-32.11,59.19-141.71,158-230c132.02-117.96,295.26-27.67,390-152
	c29.38-38.56,54.01-100.17,32-140c-36.79-66.59-203.16-70.96-305,2c-78.48,56.23-65.26,120.14-128,166
	c-54.5,39.84-159.94,61.41-386-44C0,624.33,0,730.67,0,837z"/>
</svg>
