<?xml version="1.0" encoding="utf-8"?>
<!-- Generator: Adobe Illustrator 24.0.1, SVG Export Plug-In . SVG Version: 6.00 Build 0)  -->
<svg version="1.1" id="Layer_1" xmlns="http://www.w3.org/2000/svg" xmlns:xlink="http://www.w3.org/1999/xlink" x="0px" y="0px"
	 viewBox="0 0 2560 1080" style="enable-background:new 0 0 2560 1080;" xml:space="preserve">
<style type="text/css">
	.st0{fill:#181818;}
	.st1{fill:url(#SVGID_1_);}
	.st2{fill:url(#SVGID_2_);}
	.st3{fill:url(#SVGID_3_);}
	.st4{fill:url(#SVGID_4_);}
	.st5{fill:url(#SVGID_5_);}
	.st6{fill:url(#SVGID_6_);}
	.st7{opacity:0.45;fill:url(#SVGID_7_);}
	.st8{fill:url(#SVGID_8_);}
</style>
<rect x="-1" y="-1" class="st0" width="2561" height="1081"/>
<linearGradient id="SVGID_1_" gradientUnits="userSpaceOnUse" x1="1314.0219" y1="1153.6777" x2="1220.6885" y2="455.0111">
	<stop  offset="0" style="stop-color:#222222"/>
	<stop  offset="0.9947" style="stop-color:#141414"/>
</linearGradient>
<path class="st1" d="M0,644c167.56,163.65,413.57,350.42,666,305c277.98-50.01,342.87-341.84,610-485
	c217.53-116.58,593.01-147.34,1284,254c0,120.67,0,241.33,0,362c-853.33,0-1706.67,0-2560,0C0,934.67,0,789.33,0,644z"/>
<linearGradient id="SVGID_2_" gradientUnits="userSpaceOnUse" x1="1361.019" y1="743.6019" x2="1238.3524" y2="158.2686">
	<stop  offset="0" style="stop-color:#000000"/>
	<stop  offset="1" style="stop-color:#222222"/>
</linearGradient>
<path class="st2" d="M0.5,714.5c200.31,66.72,479.16,120.21,728-3c214.68-106.3,216.69-243.76,412-304
	c294.56-90.84,465.24,172.09,835.5,157.5c143.36-5.65,344.95-54.02,583.5-252.5c0-104.33,0-208.67,0-313c-853.33,0-1706.67,0-2560,0
	C-0.17,237.83,0.17,476.17,0.5,714.5z"/>
<linearGradient id="SVGID_3_" gradientUnits="userSpaceOnUse" x1="1164.707" y1="714.127" x2="934.0403" y2="76.7936">
	<stop  offset="0" style="stop-color:#FC4A1A"/>
	<stop  offset="0.3635" style="stop-color:#FA7323"/>
	<stop  offset="1" style="stop-color:#F7B733"/>
</linearGradient>
<path class="st3" d="M0,554c89.47,31.15,221.11,61.62,368,32c290.07-58.49,310.42-284.89,569-353c294.91-77.68,452.08,168.43,732,80
	c176.29-55.69,284.25-207.1,344-313C1341.67-0.33,670.33-0.67-1-1c0.23,126.89,0.46,253.78,0.69,380.67
	c0.01,3.11,0.01,6.22,0.02,9.33C-0.2,444-0.1,499,0,554z"/>
<linearGradient id="SVGID_4_" gradientUnits="userSpaceOnUse" x1="1921.4686" y1="852.3275" x2="1972.1353" y2="1109.6608">
	<stop  offset="0" style="stop-color:#FF8008"/>
	<stop  offset="0.0504" style="stop-color:#FF840A"/>
	<stop  offset="0.9947" style="stop-color:#FFC837"/>
</linearGradient>
<path class="st4" d="M1334,1080c125.99-186.08,223.9-220.72,290-218c103.96,4.28,133.86,101.18,241,100
	c125.66-1.38,161.03-135.52,296-181c79.96-26.94,204.8-26.11,399,103c0,65.33,0,130.67,0,196C2151.33,1080,1742.67,1080,1334,1080z"
	/>
<linearGradient id="SVGID_5_" gradientUnits="userSpaceOnUse" x1="863.3889" y1="921.9833" x2="20.7222" y2="331.3166">
	<stop  offset="0" style="stop-color:#F7971E"/>
	<stop  offset="0.9894" style="stop-color:#FFC837"/>
</linearGradient>
<path class="st5" d="M0,843c65.95,83.54,163.44,187.74,238,165c86.75-26.46,40.24-193.57,159-316
	c152.86-157.58,400.27-56.38,469-198c24.1-49.66,19.4-115.85-12-146c-59.21-56.87-223.98,4.32-330,86
	c-81.87,63.07-78.93,100.02-138,134c-63.49,36.52-175.63,56.41-386-44C0,630.33,0,736.67,0,843z"/>
<linearGradient id="SVGID_6_" gradientUnits="userSpaceOnUse" x1="310" y1="226" x2="310" y2="226">
	<stop  offset="0" style="stop-color:#FC4A1A"/>
	<stop  offset="0.3635" style="stop-color:#FA7323"/>
	<stop  offset="1" style="stop-color:#F7B733"/>
</linearGradient>
<path class="st6" d="M310,226"/>
<linearGradient id="SVGID_7_" gradientUnits="userSpaceOnUse" x1="0" y1="189.5" x2="1165" y2="189.5">
	<stop  offset="0" style="stop-color:#FF8455"/>
	<stop  offset="0.9947" style="stop-color:#FFBF3F"/>
</linearGradient>
<path class="st7" d="M0,380c96.76-104.25,184.92-137.29,252-146c124.96-16.22,169.57,57.48,340,62c23.7,0.63,147.17,2.53,286-59
	c152.53-67.6,243.28-176.18,287-238C777,0,389,1,1,2C0.67,128,0.33,254,0,380z"/>
<linearGradient id="SVGID_8_" gradientUnits="userSpaceOnUse" x1="524.8167" y1="-96.4599" x2="587.4834" y2="300.8734">
	<stop  offset="0" style="stop-color:#FDC830"/>
	<stop  offset="0.191" style="stop-color:#FBB731"/>
	<stop  offset="1" style="stop-color:#F37335"/>
</linearGradient>
<path class="st8" d="M1,342c85.04-85.27,213.72-184.63,365-176c112.47,6.41,161.99,55.16,263,70c109.21,16.04,273.85-13.57,504-236
	C755.33-0.33,377.67-0.67,0-1C0.33,113.33,0.67,227.67,1,342z"/>
</svg>
