<svg height="512pt" viewBox="0 -99 512 512" width="512pt" xmlns="http://www.w3.org/2000/svg"><path d="m432.570312 0-19.171874 60.25-9.539063 30-28.710937 90.25h-310.96875l-28.710938-90.25-9.539062-30-19.167969-60.25zm0 0" fill="#c2715a"/><path d="m432.570312 0-19.171874 60.25-9.539063 30-28.710937 90.25h-155.476563v-180.5zm0 0" fill="#af5f49"/><path d="m0 150.5h439.328125v99.949219h-439.328125zm0 0" fill="#ebded9"/><path d="m512 235.449219h-30v-27h-57.667969v-30h87.667969zm0 0" fill="#fd9d28"/><path d="m413.398438 60.25-9.539063 30h-368.390625l-9.539062-30zm0 0" fill="#804231"/><path d="m403.859375 90.25h-184.1875v-30h193.726563zm0 0" fill="#582b1f"/><path d="m219.671875 150.5h219.65625v99.949219h-219.65625zm0 0" fill="#cabbb7"/><path d="m138.671875 257.949219c0 22.640625-18.363281 41-41 41-22.652344 0-41-18.359375-41-41s18.347656-41 41-41c22.636719 0 41 18.359375 41 41zm0 0" fill="#c2715a"/><path d="m97.671875 201.949219c-30.882813 0-56 25.121093-56 56 0 30.878906 25.117187 56 56 56 30.867187 0 56-25.121094 56-56 0-30.878907-25.132813-56-56-56zm0 82c-14.34375 0-26-11.660157-26-26 0-14.339844 11.65625-26 26-26 14.328125 0 26 11.660156 26 26 0 14.339843-11.671875 26-26 26zm0 0" fill="#804231"/><path d="m138.671875 257.949219c0 22.640625-18.363281 41-41 41v-82c22.636719 0 41 18.359375 41 41zm0 0" fill="#af5f49"/><path d="m379.671875 257.949219c0 22.640625-18.363281 41-41 41-22.652344 0-41-18.359375-41-41s18.347656-41 41-41c22.636719 0 41 18.359375 41 41zm0 0" fill="#c2715a"/><path d="m338.671875 201.949219c-30.882813 0-56 25.121093-56 56 0 30.878906 25.117187 56 56 56 30.867187 0 56-25.121094 56-56 0-30.878907-25.132813-56-56-56zm0 82c-14.34375 0-26-11.660157-26-26 0-14.339844 11.65625-26 26-26 14.328125 0 26 11.660156 26 26 0 14.339843-11.671875 26-26 26zm0 0" fill="#804231"/><path d="m379.671875 257.949219c0 22.640625-18.363281 41-41 41v-82c22.636719 0 41 18.359375 41 41zm0 0" fill="#af5f49"/><g fill="#582b1f"><path d="m153.671875 257.949219c0 30.878906-25.132813 56-56 56v-30c14.328125 0 26-11.660157 26-26 0-14.339844-11.671875-26-26-26v-30c30.867187 0 56 25.121093 56 56zm0 0"/><path d="m394.671875 257.949219c0 30.878906-25.132813 56-56 56v-30c14.328125 0 26-11.660157 26-26 0-14.339844-11.671875-26-26-26v-30c30.867187 0 56 25.121093 56 56zm0 0"/></g></svg>