<?xml version="1.0" encoding="iso-8859-1"?>
<!-- Generator: Adobe Illustrator 19.0.0, SVG Export Plug-In . SVG Version: 6.00 Build 0)  -->
<svg version="1.1" id="Capa_1" xmlns="http://www.w3.org/2000/svg" xmlns:xlink="http://www.w3.org/1999/xlink" x="0px" y="0px"
	 viewBox="0 0 511.999 511.999" style="enable-background:new 0 0 511.999 511.999;" xml:space="preserve">
<polygon style="fill:#FA9600;" points="461.999,110.996 9.988,110.996 49.989,240.999 421.998,240.999 "/>
<rect x="31.988" y="240.995" style="fill:#9B4B14;" width="408.01" height="40.001"/>
<rect x="83.99" y="280.996" style="fill:#AAAAA0;" width="304.008" height="40.001"/>
<path style="fill:#6E6E6E;" d="M140.564,321.001C132.326,297.7,110.113,281,83.991,281c-33.138,0-60.002,26.864-60.002,60.002
	s26.864,60.002,60.002,60.002s60.002-26.864,60.002-60.002C143.991,333.987,142.776,327.259,140.564,321.001z"/>
<circle style="fill:#AAAAA0;" cx="83.99" cy="340.998" r="20.001"/>
<path style="fill:#6E6E6E;" d="M387.997,281c-26.123,0-48.335,16.699-56.573,40.001c-2.212,6.257-3.428,12.985-3.428,20
	c0,33.138,26.864,60.002,60.002,60.002s60.002-26.864,60.002-60.002S421.135,281,387.997,281z"/>
<circle style="fill:#AAAAA0;" cx="388" cy="340.998" r="20.001"/>
<path d="M387.997,311.001c-16.542,0-30.001,13.458-30.001,30.001s13.458,30.001,30.001,30.001s30.001-13.458,30.001-30.001
	S404.54,311.001,387.997,311.001z M387.997,351.002c-5.514,0-10-4.486-10-10c0-5.514,4.486-10,10-10c5.514,0,10,4.486,10,10
	C397.998,346.516,393.511,351.002,387.997,351.002z"/>
<path d="M235.993,185.998c5.51,0,10-4.49,10-10s-4.49-10-10-10s-10,4.49-10,10C225.993,181.507,230.483,185.998,235.993,185.998z"/>
<path d="M502,304.001h-54.618c-2.966-4.743-6.481-9.106-10.46-13h3.077c5.522,0,10-4.477,10-10v-40.001c0-5.523-4.478-10-10-10
	h-4.461c0,0,35.841-116.482,36.019-117.06c1.925-6.256-3.049-12.943-9.557-12.943c0,0-450.46,0-452.007,0
	c-6.318,0-11.554,6.466-9.562,12.941l36.019,117.062h-4.461c-5.523,0-10,4.477-10,10V281c0,5.523,4.477,10,10,10h3.077
	c-12.993,12.716-21.078,30.428-21.078,50.001c0,38.599,31.403,70.002,70.002,70.002c27.868,0,51.978-16.372,63.234-40.001h177.54
	c11.255,23.629,35.366,40.001,63.234,40.001c38.599,0,70.002-31.403,70.002-70.002c0-5.862-0.734-11.555-2.098-17h46.099
	c5.51,0,10-4.49,10-10C512,308.49,507.51,304.001,502,304.001z M23.528,120.996H448.46l-13.846,45.001H275.994
	c-5.521,0-10,4.49-10,10s4.479,10,10,10h152.465l-13.846,45.001H57.375l-13.846-45.001h152.464c5.51,0,10-4.49,10-10s-4.49-10-10-10
	H37.374L23.528,120.996z M429.998,251V271H41.988V251L429.998,251L429.998,251z M83.99,391.003
	c-27.571,0-50.001-22.431-50.001-50.001s22.431-50.001,50.001-50.001s50.001,22.431,50.001,50.001S111.561,391.003,83.99,391.003z
	 M318.722,351.002H153.266c0.47-3.268,0.726-6.604,0.726-10s-0.256-6.732-0.726-10h165.455c-0.47,3.268-0.726,6.604-0.726,10
	S318.252,347.734,318.722,351.002z M147.223,311.001c-3.571-7.496-8.44-14.256-14.309-20h206.159
	c-5.869,5.744-10.738,12.504-14.309,20H147.223z M387.997,391.003c-27.571,0-50.001-22.431-50.001-50.001
	s22.431-50.001,50.001-50.001s50.001,22.431,50.001,50.001S415.569,391.003,387.997,391.003z"/>
<path d="M83.99,311.001c-16.542,0-30.001,13.458-30.001,30.001s13.458,30.001,30.001,30.001s30.001-13.458,30.001-30.001
	S100.532,311.001,83.99,311.001z M83.99,351.002c-5.514,0-10-4.486-10-10c0-5.514,4.486-10,10-10c5.514,0,10,4.486,10,10
	C93.99,346.516,89.505,351.002,83.99,351.002z"/>
<g>
</g>
<g>
</g>
<g>
</g>
<g>
</g>
<g>
</g>
<g>
</g>
<g>
</g>
<g>
</g>
<g>
</g>
<g>
</g>
<g>
</g>
<g>
</g>
<g>
</g>
<g>
</g>
<g>
</g>
</svg>
